<?xml version="1.0" encoding="utf-8"?>
<!-- Generator: Adobe Illustrator 22.0.0, SVG Export Plug-In . SVG Version: 6.00 Build 0)  -->
<svg version="1.1" id="Layer_1" xmlns="http://www.w3.org/2000/svg" xmlns:xlink="http://www.w3.org/1999/xlink" x="0px" y="0px"
	 viewBox="0 0 700 73.1" style="enable-background:new 0 0 700 73.1;" xml:space="preserve">
<style type="text/css">
	.st0{fill:#0D91CC;}
</style>
<g>
	<path class="st0" d="M700,5.9c-14.8,6.5-26.7,6-39.9,1.2c-1.4-0.6-2.9-1.1-4.5-1.6C647.2,2.6,638.2,0,627.5,0c-0.3,0-0.6,0-1,0v0.2
		c-2.6-0.2-5.3-0.2-8-0.2c-29.6,0-48.5,12.3-66.4,12.3C534.3,12.3,515.5,0,485.8,0c-0.8,0-1.7,0-2.5,0c-0.8,0-1.7,0-2.5,0
		c-29.6,0-48.5,12.3-66.4,12.3C396.5,12.3,377.7,0,348,0c-0.8,0-1.7,0-2.5,0c-0.8,0-1.7,0-2.5,0c-29.6,0-48.5,12.3-66.4,12.3
		C258.8,12.3,239.9,0,210.3,0c-0.8,0-1.7,0-2.5,0c-0.8,0-1.7,0-2.5,0c-29.6,0-48.5,12.3-66.4,12.3S102.2,0,72.5,0
		c-30,0-47,17.1-72.5,5.9l0,67.2h137.8h137.8h2.2h135.5h2.2h137.8h73.2h64.5h8.9L700,5.9z"/>
</g>
</svg>
