<?xml version="1.0" encoding="utf-8"?>
<!-- Generator: Adobe Illustrator 22.0.0, SVG Export Plug-In . SVG Version: 6.00 Build 0)  -->
<svg version="1.1" id="Layer_1" xmlns="http://www.w3.org/2000/svg" xmlns:xlink="http://www.w3.org/1999/xlink" x="0px" y="0px"
	 viewBox="0 0 700 78.7" style="enable-background:new 0 0 700 78.7;" xml:space="preserve">
<style type="text/css">
	.st0{fill:#0D91CC;}
</style>
<g>
	<path class="st0" d="M700,5c-14.8-2.9-30.9-5-48.8-5c-1.9,0-3.7,0-5.5,0.1c-1.8,0-3.7-0.1-5.5-0.1c-65.5,0-107.2,27.1-146.7,27.1
		C453.8,27.1,412.2,0,346.6,0c-1.9,0-3.7,0-5.5,0.1c-1.8,0-3.7-0.1-5.5-0.1C270,0,228.3,27.1,188.8,27.1C149.2,27.1,107.6,0,42.1,0
		c-1.9,0-3.7,0-5.5,0.1C34.7,0,32.8,0,31,0C20,0,9.7,0.8,0,2v76.6h700V5z"/>

</g>
</svg>
