<?xml version="1.0" encoding="utf-8"?>
<!-- Generator: Adobe Illustrator 22.0.0, SVG Export Plug-In . SVG Version: 6.00 Build 0)  -->
<svg version="1.1" id="Layer_1" xmlns="http://www.w3.org/2000/svg" xmlns:xlink="http://www.w3.org/1999/xlink" x="0px" y="0px"
	 viewBox="0 0 700 80.4" style="enable-background:new 0 0 700 80.4;" xml:space="preserve">
<style type="text/css">
	.st0{fill:#0D91CC;}
</style>
<g>
	<path class="st0" d="M700,30.9c-9.1,7.3-31.9,7.2-35.8-5C659.5,11.4,665.7,0,665.7,0l-43.5,30.9c-9.1,7.3-31.9,7.2-35.8-5
		C581.7,11.4,587.9,0,587.9,0l-43.5,30.9c-9.1,7.3-31.9,7.2-35.8-5C504,11.4,510.1,0,510.1,0l-43.5,30.9c-9.1,7.3-31.9,7.2-35.8-5
		C426.2,11.4,432.3,0,432.3,0l-43.5,30.9c-9.1,7.3-31.9,7.2-35.8-5C348.4,11.4,354.6,0,354.6,0l-43.5,30.9c-9.1,7.3-31.9,7.2-35.8-5
		C270.6,11.4,276.8,0,276.8,0l-43.5,30.9c-9.1,7.3-31.9,7.2-35.8-5C192.8,11.4,199,0,199,0l-43.5,30.9c-9.1,7.3-31.9,7.2-35.8-5
		C115.1,11.4,121.2,0,121.2,0L77.8,30.9c-9.1,7.3-31.9,7.2-35.8-5C37.3,11.4,43.5,0,43.5,0L0,30.9v49.5h700V30.9z"/>
</g>
</svg>
