<?xml version="1.0" encoding="iso-8859-1"?>
<!-- Generator: Adobe Illustrator 18.1.1, SVG Export Plug-In . SVG Version: 6.00 Build 0)  -->
<svg version="1.1" id="Capa_1" xmlns="http://www.w3.org/2000/svg" xmlns:xlink="http://www.w3.org/1999/xlink" x="0px" y="0px"
	 viewBox="0 0 512 512" style="enable-background:new 0 0 512 512;" xml:space="preserve">
<g>
	<g>
		<g>
			<path style="fill:#010002;" d="M502,109.5c6.667-4.667,10-11.333,10-20c0-7.333-2.5-13.5-7.5-18.5s-11-7.5-18-7.5s-13,2.5-18,7.5
				S461,82.167,461,89.5c0,8.668,3.333,15.335,10,20v159h-20v-194h-62v-21H265c-2.667-10-8.167-18.5-16.5-25.5
				S230.667,17.5,220,17.5S199.833,21,191.5,28S177.667,43.5,175,53.5H51v21H0v420h451v-144h30v-3c17.333-6.667,26-19.334,26-38
				c0-6.667-1.667-13-5-19V109.5z M164,115.5h123v143H164V115.5z M20,115.5h123v143H20V115.5z M389,442.5H51v-71h338V442.5z
				 M430,258.5H307v-143h123V258.5z"/>
			<path style="fill:#010002;" d="M225,135.5c-13.333,0-27,3.333-41,10v-10h-10v62h10c0-0.667,0.167-1.5,0.5-2.5s0.833-2.667,1.5-5
				s1.667-4.5,3-6.5s3.333-3.667,6-5s6-2,10-2l14,0.5c9.333,0.333,15,0.167,17-0.5c-3.333,2-7.333,4.833-12,8.5
				c-4.667,3.669-10.833,10.836-18.5,21.5c-7.667,10.667-11.5,21.333-11.5,32h52c0-4.667,0.167-10.5,0.5-17.5s3.167-18.667,8.5-35
				s12.333-29.833,21-40.5l-10-10C252.667,142.167,239,142.167,225,135.5z"/>
			<path style="fill:#010002;" d="M331,184.5c4-5.333,9.667-8,17-8l14.5,0.5c9.667,0.333,15.167,0.167,16.5-0.5
				c-3.333,2-7.167,4.833-11.5,8.5c-4.333,3.669-10.333,10.836-18,21.5c-7.667,10.667-11.5,21.333-11.5,32h51
				c0-4.667,0.333-10.5,1-17.5s3.5-18.667,8.5-35s12.167-29.833,21.5-40.5l-10-10c-14,6.667-27.667,6.667-41,0
				c-14,0-27.667,3.333-41,10v-10h-11v62h11L331,184.5z"/>
			<path style="fill:#010002;" d="M82,135.5c-14,0-27.667,3.333-41,10v-10H31v62h10c0-2,0.167-4.167,0.5-6.5s2.167-5.333,5.5-9
				s8-5.5,14-5.5c0.667,0,5.667,0.167,15,0.5s14.667,0.167,16-0.5c-2.667,2-6.333,4.833-11,8.5
				c-4.667,3.669-10.833,10.836-18.5,21.5c-7.667,10.667-11.5,21.333-11.5,32h51c0-4.667,0.333-10.5,1-17.5s3.5-18.667,8.5-35
				s12.167-29.833,21.5-40.5l-10-10C109,142.167,95.333,142.167,82,135.5z"/>
		</g>
	</g>
</g>
<g>
</g>
<g>
</g>
<g>
</g>
<g>
</g>
<g>
</g>
<g>
</g>
<g>
</g>
<g>
</g>
<g>
</g>
<g>
</g>
<g>
</g>
<g>
</g>
<g>
</g>
<g>
</g>
<g>
</g>
</svg>
